<svg xmlns="http://www.w3.org/2000/svg" viewBox="0 0 1600 840" width="1600" height="840"><defs><radialGradient id="bg" cx="50%" cy="45%" r="75%"><stop offset="0" stop-color="#151233"/><stop offset="1" stop-color="#0b0a1a"/></radialGradient><filter id="soft"><feGaussianBlur stdDeviation="14"/></filter><filter id="glow"><feGaussianBlur stdDeviation="5"/></filter></defs><rect width="1600" height="840" fill="url(#bg)"/><circle cx="636.0" cy="159.2" r="0.9" fill="#efeaf7" opacity="0.66"/><circle cx="842.7" cy="585.3" r="1.2" fill="#efeaf7" opacity="0.70"/><circle cx="216.8" cy="833.1" r="0.7" fill="#efeaf7" opacity="0.70"/><circle cx="962.7" cy="371.1" r="1.2" fill="#efeaf7" opacity="0.69"/><circle cx="223.2" cy="137.6" r="1.6" fill="#efeaf7" opacity="0.79"/><circle cx="539.6" cy="128.3" r="0.9" fill="#efeaf7" opacity="0.54"/><circle cx="318.3" cy="148.5" r="0.7" fill="#efeaf7" opacity="0.89"/><circle cx="1561.4" cy="544.0" r="1.6" fill="#efeaf7" opacity="0.76"/><circle cx="40.1" cy="418.0" r="1.6" fill="#efeaf7" opacity="0.58"/><circle cx="755.1" cy="56.8" r="0.9" fill="#efeaf7" opacity="0.50"/><circle cx="221.9" cy="359.9" r="1.2" fill="#efeaf7" opacity="0.72"/><circle cx="1034.5" cy="743.5" r="0.7" fill="#efeaf7" opacity="0.61"/><circle cx="136.4" cy="240.1" r="0.9" fill="#efeaf7" opacity="0.88"/><circle cx="584.7" cy="20.7" r="1.6" fill="#efeaf7" opacity="0.71"/><circle cx="912.9" cy="506.8" r="1.6" fill="#efeaf7" opacity="0.35"/><circle cx="498.8" cy="360.8" r="1.2" fill="#efeaf7" opacity="0.52"/><circle cx="71.1" cy="251.4" r="1.6" fill="#efeaf7" opacity="0.77"/><circle cx="1482.8" cy="690.5" r="0.7" fill="#efeaf7" opacity="0.28"/><circle cx="1571.1" cy="432.0" r="1.2" fill="#efeaf7" opacity="0.30"/><circle cx="84.5" cy="260.7" r="0.7" fill="#efeaf7" opacity="0.48"/><circle cx="1426.9" cy="782.5" r="0.9" fill="#efeaf7" opacity="0.74"/><circle cx="698.0" cy="396.8" r="0.9" fill="#efeaf7" opacity="0.67"/><circle cx="73.3" cy="822.3" r="0.9" fill="#efeaf7" opacity="0.73"/><circle cx="1244.6" cy="405.6" r="1.2" fill="#efeaf7" opacity="0.31"/><circle cx="1113.4" cy="444.1" r="1.6" fill="#efeaf7" opacity="0.37"/><circle cx="1189.7" cy="35.8" r="1.2" fill="#efeaf7" opacity="0.36"/><circle cx="1103.5" cy="763.3" r="0.9" fill="#efeaf7" opacity="0.56"/><circle cx="1189.8" cy="484.1" r="1.6" fill="#efeaf7" opacity="0.41"/><circle cx="1386.6" cy="29.6" r="1.2" fill="#efeaf7" opacity="0.89"/><circle cx="1584.4" cy="336.3" r="1.2" fill="#efeaf7" opacity="0.54"/><circle cx="1101.3" cy="337.8" r="1.2" fill="#efeaf7" opacity="0.64"/><circle cx="254.6" cy="163.0" r="0.9" fill="#efeaf7" opacity="0.70"/><circle cx="793.4" cy="341.9" r="1.6" fill="#efeaf7" opacity="0.38"/><circle cx="1322.9" cy="107.3" r="0.9" fill="#efeaf7" opacity="0.89"/><circle cx="1329.4" cy="577.2" r="1.6" fill="#efeaf7" opacity="0.69"/><circle cx="329.7" cy="832.7" r="1.6" fill="#efeaf7" opacity="0.87"/><circle cx="765.1" cy="202.7" r="0.9" fill="#efeaf7" opacity="0.69"/><circle cx="262.4" cy="281.2" r="0.7" fill="#efeaf7" opacity="0.32"/><circle cx="273.4" cy="769.4" r="1.2" fill="#efeaf7" opacity="0.62"/><circle cx="990.7" cy="343.7" r="1.2" fill="#efeaf7" opacity="0.87"/><circle cx="336.2" cy="323.0" r="1.6" fill="#efeaf7" opacity="0.86"/><circle cx="496.1" cy="208.9" r="0.9" fill="#efeaf7" opacity="0.90"/><circle cx="631.9" cy="556.7" r="0.9" fill="#efeaf7" opacity="0.46"/><circle cx="330.1" cy="663.4" r="1.6" fill="#efeaf7" opacity="0.54"/><circle cx="1268.8" cy="567.4" r="1.6" fill="#efeaf7" opacity="0.33"/><circle cx="191.8" cy="259.3" r="0.9" fill="#efeaf7" opacity="0.89"/><circle cx="605.7" cy="624.5" r="1.2" fill="#efeaf7" opacity="0.43"/><circle cx="522.8" cy="688.3" r="0.9" fill="#efeaf7" opacity="0.49"/><circle cx="803.9" cy="516.3" r="1.2" fill="#efeaf7" opacity="0.89"/><circle cx="136.5" cy="580.7" r="0.9" fill="#efeaf7" opacity="0.51"/><circle cx="613.8" cy="662.1" r="0.7" fill="#efeaf7" opacity="0.85"/><circle cx="37.7" cy="652.6" r="1.2" fill="#efeaf7" opacity="0.68"/><circle cx="1335.6" cy="218.5" r="1.2" fill="#efeaf7" opacity="0.27"/><circle cx="1371.1" cy="159.8" r="0.7" fill="#efeaf7" opacity="0.49"/><circle cx="479.7" cy="506.9" r="1.2" fill="#efeaf7" opacity="0.76"/><circle cx="468.6" cy="287.5" r="1.6" fill="#efeaf7" opacity="0.49"/><circle cx="817.9" cy="532.9" r="0.9" fill="#efeaf7" opacity="0.71"/><circle cx="1059.5" cy="227.7" r="0.7" fill="#efeaf7" opacity="0.45"/><circle cx="745.6" cy="321.5" r="0.9" fill="#efeaf7" opacity="0.33"/><circle cx="831.5" cy="354.5" r="1.2" fill="#efeaf7" opacity="0.81"/><circle cx="1167.5" cy="191.2" r="1.2" fill="#efeaf7" opacity="0.75"/><circle cx="350.4" cy="706.7" r="0.9" fill="#efeaf7" opacity="0.27"/><circle cx="786.8" cy="703.8" r="1.2" fill="#efeaf7" opacity="0.42"/><circle cx="934.9" cy="70.8" r="1.2" fill="#efeaf7" opacity="0.69"/><circle cx="958.8" cy="786.5" r="1.2" fill="#efeaf7" opacity="0.51"/><circle cx="813.1" cy="810.9" r="0.9" fill="#efeaf7" opacity="0.35"/><circle cx="374.1" cy="408.2" r="1.6" fill="#efeaf7" opacity="0.39"/><circle cx="772.1" cy="745.9" r="0.7" fill="#efeaf7" opacity="0.56"/><circle cx="1086.4" cy="730.1" r="0.9" fill="#efeaf7" opacity="0.68"/><circle cx="637.0" cy="204.4" r="0.9" fill="#efeaf7" opacity="0.30"/><circle cx="322.2" cy="441.7" r="0.9" fill="#efeaf7" opacity="0.73"/><circle cx="264.1" cy="692.9" r="1.2" fill="#efeaf7" opacity="0.73"/><circle cx="1320.3" cy="547.4" r="0.7" fill="#efeaf7" opacity="0.84"/><circle cx="683.2" cy="416.7" r="1.2" fill="#efeaf7" opacity="0.65"/><circle cx="1086.5" cy="324.4" r="0.9" fill="#efeaf7" opacity="0.25"/><circle cx="844.0" cy="139.7" r="1.6" fill="#efeaf7" opacity="0.46"/><circle cx="784.1" cy="181.2" r="1.2" fill="#efeaf7" opacity="0.52"/><circle cx="1479.2" cy="594.4" r="1.6" fill="#efeaf7" opacity="0.45"/><circle cx="519.0" cy="106.8" r="1.6" fill="#efeaf7" opacity="0.36"/><circle cx="1114.3" cy="483.7" r="1.6" fill="#efeaf7" opacity="0.74"/><circle cx="1461.5" cy="812.4" r="1.2" fill="#efeaf7" opacity="0.61"/><circle cx="1464.2" cy="435.7" r="1.6" fill="#efeaf7" opacity="0.27"/><circle cx="610.7" cy="550.9" r="0.9" fill="#efeaf7" opacity="0.68"/><circle cx="1341.7" cy="753.6" r="1.2" fill="#efeaf7" opacity="0.49"/><circle cx="1281.5" cy="189.1" r="1.6" fill="#efeaf7" opacity="0.26"/><circle cx="977.2" cy="536.4" r="0.9" fill="#efeaf7" opacity="0.89"/><circle cx="545.3" cy="157.2" r="0.7" fill="#efeaf7" opacity="0.32"/><circle cx="861.4" cy="278.9" r="0.9" fill="#efeaf7" opacity="0.82"/><circle cx="44.8" cy="348.0" r="0.7" fill="#efeaf7" opacity="0.51"/><circle cx="1515.8" cy="556.2" r="0.7" fill="#efeaf7" opacity="0.52"/><circle cx="1265.0" cy="681.5" r="0.7" fill="#efeaf7" opacity="0.48"/><circle cx="1272.1" cy="800.6" r="0.9" fill="#efeaf7" opacity="0.56"/><circle cx="744.4" cy="437.1" r="0.7" fill="#efeaf7" opacity="0.80"/><circle cx="1187.9" cy="408.9" r="1.2" fill="#efeaf7" opacity="0.72"/><circle cx="1268.0" cy="85.5" r="0.9" fill="#efeaf7" opacity="0.71"/><circle cx="963.7" cy="792.1" r="0.7" fill="#efeaf7" opacity="0.43"/><circle cx="893.7" cy="275.9" r="1.6" fill="#efeaf7" opacity="0.84"/><circle cx="1410.6" cy="460.8" r="0.7" fill="#efeaf7" opacity="0.52"/><circle cx="128.2" cy="570.7" r="1.6" fill="#efeaf7" opacity="0.78"/><circle cx="1168.0" cy="584.8" r="1.2" fill="#efeaf7" opacity="0.55"/><circle cx="672.1" cy="760.8" r="0.9" fill="#efeaf7" opacity="0.55"/><circle cx="1565.9" cy="621.7" r="1.2" fill="#efeaf7" opacity="0.82"/><circle cx="1336.0" cy="444.4" r="0.9" fill="#efeaf7" opacity="0.60"/><circle cx="726.3" cy="100.3" r="1.2" fill="#efeaf7" opacity="0.79"/><circle cx="523.5" cy="108.6" r="0.9" fill="#efeaf7" opacity="0.76"/><circle cx="16.1" cy="433.1" r="0.7" fill="#efeaf7" opacity="0.35"/><circle cx="1007.4" cy="186.6" r="1.2" fill="#efeaf7" opacity="0.89"/><circle cx="1273.0" cy="163.9" r="1.2" fill="#efeaf7" opacity="0.55"/><circle cx="482.1" cy="715.6" r="0.7" fill="#efeaf7" opacity="0.77"/><circle cx="1207.0" cy="371.2" r="1.6" fill="#efeaf7" opacity="0.56"/><circle cx="181.5" cy="125.5" r="0.7" fill="#efeaf7" opacity="0.56"/><circle cx="438.1" cy="630.2" r="1.2" fill="#efeaf7" opacity="0.65"/><circle cx="131.8" cy="610.1" r="0.7" fill="#efeaf7" opacity="0.82"/><circle cx="351.1" cy="389.8" r="1.6" fill="#efeaf7" opacity="0.79"/><circle cx="570.1" cy="346.8" r="0.9" fill="#efeaf7" opacity="0.61"/><circle cx="452.5" cy="448.3" r="1.2" fill="#efeaf7" opacity="0.83"/><circle cx="1543.6" cy="497.9" r="1.6" fill="#efeaf7" opacity="0.81"/><circle cx="187.7" cy="57.3" r="1.2" fill="#efeaf7" opacity="0.85"/><circle cx="670.1" cy="465.9" r="1.2" fill="#efeaf7" opacity="0.72"/><circle cx="1269.1" cy="352.8" r="1.6" fill="#efeaf7" opacity="0.46"/><circle cx="890.4" cy="830.6" r="1.2" fill="#efeaf7" opacity="0.72"/><circle cx="1435.7" cy="356.1" r="1.6" fill="#efeaf7" opacity="0.26"/><circle cx="666.1" cy="547.1" r="0.7" fill="#efeaf7" opacity="0.74"/><circle cx="1335.3" cy="515.0" r="0.7" fill="#efeaf7" opacity="0.35"/><circle cx="1221.0" cy="301.9" r="1.2" fill="#efeaf7" opacity="0.83"/><circle cx="76.3" cy="605.1" r="0.9" fill="#efeaf7" opacity="0.48"/><circle cx="78.1" cy="167.0" r="1.2" fill="#efeaf7" opacity="0.64"/><circle cx="11.9" cy="427.1" r="0.9" fill="#efeaf7" opacity="0.49"/><circle cx="1515.4" cy="214.8" r="1.2" fill="#efeaf7" opacity="0.40"/><circle cx="1381.9" cy="726.0" r="0.7" fill="#efeaf7" opacity="0.59"/><circle cx="65.3" cy="519.2" r="1.2" fill="#efeaf7" opacity="0.48"/><circle cx="930.8" cy="578.5" r="1.2" fill="#efeaf7" opacity="0.69"/><circle cx="432.7" cy="592.6" r="1.6" fill="#efeaf7" opacity="0.28"/><circle cx="636.8" cy="753.9" r="0.7" fill="#efeaf7" opacity="0.82"/><circle cx="1111.5" cy="421.8" r="0.7" fill="#efeaf7" opacity="0.41"/><circle cx="0.3" cy="771.8" r="0.9" fill="#efeaf7" opacity="0.68"/><circle cx="667.8" cy="707.1" r="0.9" fill="#efeaf7" opacity="0.60"/><circle cx="452.0" cy="148.3" r="1.6" fill="#efeaf7" opacity="0.34"/><circle cx="887.1" cy="395.4" r="1.6" fill="#efeaf7" opacity="0.50"/><circle cx="1097.7" cy="293.8" r="0.7" fill="#efeaf7" opacity="0.70"/><circle cx="1010" cy="430" r="330" fill="none" stroke="#9d97c9" stroke-opacity="0.22" stroke-width="1.5" /><circle cx="1010" cy="430" r="210" fill="none" stroke="#9d97c9" stroke-opacity="0.2" stroke-width="1.5" /><polyline points="650.0,320.0 657.2,320.0 664.4,320.2 671.6,320.3 678.7,320.6 685.9,320.9 693.0,321.4 700.2,321.8 707.3,322.4 714.4,323.0 721.4,323.7 728.4,324.5 735.4,325.4 742.4,326.3 749.3,327.3 756.2,328.4 763.1,329.5 769.9,330.7 776.6,332.0 783.3,333.3 790.0,334.7 796.6,336.2 803.1,337.7 809.6,339.3 816.0,341.0 822.4,342.7 828.7,344.5 834.9,346.4 841.1,348.3 847.1,350.2 853.1,352.2 859.1,354.3 864.9,356.4 870.7,358.6 876.3,360.8 881.9,363.0 887.4,365.3 892.9,367.7 898.2,370.1 903.4,372.5 908.6,375.0 913.6,377.5 918.6,380.1 923.4,382.6 928.2,385.3 932.8,387.9 937.4,390.6 941.8,393.3 946.2,396.0 950.4,398.8 954.5,401.5 958.6,404.3 962.5,407.1 966.3,410.0 970.0,412.8 973.6,415.6 977.1,418.5 980.5,421.4 983.8,424.2 986.9,427.1 990.0,430.0 992.9,432.9 995.8,435.8 998.5,438.6 1001.1,441.5 1003.6,444.4 1006.0,447.2 1008.3,450.0 1010.5,452.9 1012.6,455.7 1014.5,458.5 1016.4,461.2 1018.2,464.0 1019.8,466.7 1021.4,469.4 1022.8,472.1 1024.2,474.7 1025.4,477.4 1026.6,479.9 1027.6,482.5 1028.6,485.0 1029.4,487.5 1030.2,489.9 1030.9,492.3 1031.4,494.7 1031.9,497.0 1032.3,499.2 1032.7,501.4 1032.9,503.6 1033.1,505.7 1033.1,507.8 1033.1,509.8 1033.1,511.7 1032.9,513.6 1032.7,515.5 1032.4,517.3 1032.0,519.0 1031.6,520.7 1031.1,522.3 1030.6,523.8 1030.0,525.3 1029.3,526.7 1028.6,528.0 1027.9,529.3 1027.1,530.5 1026.2,531.6 1025.3,532.7 1024.4,533.7 1023.4,534.6 1022.4,535.5 1021.4,536.3 1020.4,537.0 1019.3,537.6 1018.2,538.2 1017.0,538.6 1015.9,539.1 1014.7,539.4 1013.6,539.7 1012.4,539.8 1011.2,540.0 1010.0,540.0 1008.8,540.0 1007.6,539.8 1006.4,539.7 1005.3,539.4 1004.1,539.1 1003.0,538.6 1001.8,538.2 1000.7,537.6 999.6,537.0 998.6,536.3 997.6,535.5 996.6,534.6 995.6,533.7 994.7,532.7 993.8,531.6 992.9,530.5 992.1,529.3 991.4,528.0 990.7,526.7 990.0,525.3 989.4,523.8 988.9,522.3 988.4,520.7 988.0,519.0 987.6,517.3 987.3,515.5 987.1,513.6 986.9,511.7 986.9,509.8 986.9,507.8 986.9,505.7 987.1,503.6 987.3,501.4 987.7,499.2 988.1,497.0 988.6,494.7 989.1,492.3 989.8,489.9 990.6,487.5 991.4,485.0 992.4,482.5 993.4,479.9 994.6,477.4 995.8,474.7 997.2,472.1 998.6,469.4 1000.2,466.7 1001.8,464.0 1003.6,461.2 1005.5,458.5 1007.4,455.7 1009.5,452.9 1011.7,450.0 1014.0,447.2 1016.4,444.4 1018.9,441.5 1021.5,438.6 1024.2,435.8 1027.1,432.9 1030.0,430.0 1033.1,427.1 1036.2,424.2 1039.5,421.4 1042.9,418.5 1046.4,415.6 1050.0,412.8 1053.7,410.0 1057.5,407.1 1061.4,404.3 1065.5,401.5 1069.6,398.8 1073.8,396.0 1078.2,393.3 1082.6,390.6 1087.2,387.9 1091.8,385.3 1096.6,382.6 1101.4,380.1 1106.4,377.5 1111.4,375.0 1116.6,372.5 1121.8,370.1 1127.1,367.7 1132.6,365.3 1138.1,363.0 1143.7,360.8 1149.3,358.6 1155.1,356.4 1160.9,354.3 1166.9,352.2 1172.9,350.2 1178.9,348.3 1185.1,346.4 1191.3,344.5 1197.6,342.7 1204.0,341.0 1210.4,339.3 1216.9,337.7 1223.4,336.2 1230.0,334.7 1236.7,333.3 1243.4,332.0 1250.1,330.7 1256.9,329.5 1263.8,328.4 1270.7,327.3 1277.6,326.3 1284.6,325.4 1291.6,324.5 1298.6,323.7 1305.6,323.0 1312.7,322.4 1319.8,321.8 1327.0,321.4 1334.1,320.9 1341.3,320.6 1348.4,320.3 1355.6,320.2 1362.8,320.0 1370.0,320.0" fill="none" stroke="#d98a6a" stroke-width="3.5" stroke-linecap="round"/><circle cx="650.0" cy="320.0" r="18.2" fill="#d98a6a" opacity=".18" filter="url(#glow)"/><circle cx="650.0" cy="320.0" r="7" fill="#d98a6a"/><circle cx="1370.0" cy="320.0" r="18.2" fill="#d98a6a" opacity=".18" filter="url(#glow)"/><circle cx="1370.0" cy="320.0" r="7" fill="#d98a6a"/><circle cx="1004.1" cy="539.1" r="33.800000000000004" fill="#6fb7c9" opacity=".18" filter="url(#glow)"/><circle cx="1004.1" cy="539.1" r="13" fill="#6fb7c9"/><circle cx="1262.8" cy="217.9" r="13.0" fill="#9d97c9" opacity=".18" filter="url(#glow)"/><circle cx="1262.8" cy="217.9" r="5" fill="#9d97c9"/><circle cx="845.0" cy="144.2" r="13.0" fill="#9d97c9" opacity=".18" filter="url(#glow)"/><circle cx="845.0" cy="144.2" r="5" fill="#9d97c9"/><circle cx="699.9" cy="542.9" r="13.0" fill="#9d97c9" opacity=".18" filter="url(#glow)"/><circle cx="699.9" cy="542.9" r="5" fill="#9d97c9"/><circle cx="1175.0" cy="715.8" r="13.0" fill="#9d97c9" opacity=".18" filter="url(#glow)"/><circle cx="1175.0" cy="715.8" r="5" fill="#9d97c9"/></svg>