<svg xmlns="http://www.w3.org/2000/svg" viewBox="0 0 1200 700" width="1200" height="700"><defs><radialGradient id="bg" cx="50%" cy="45%" r="75%"><stop offset="0" stop-color="#151233"/><stop offset="1" stop-color="#0b0a1a"/></radialGradient><filter id="soft"><feGaussianBlur stdDeviation="14"/></filter><filter id="glow"><feGaussianBlur stdDeviation="5"/></filter></defs><rect width="1200" height="700" fill="url(#bg)"/><circle cx="697.4" cy="136.3" r="1.2" fill="#efeaf7" opacity="0.55"/><circle cx="796.2" cy="150.2" r="0.9" fill="#efeaf7" opacity="0.85"/><circle cx="582.6" cy="548.1" r="1.2" fill="#efeaf7" opacity="0.88"/><circle cx="84.4" cy="135.3" r="0.7" fill="#efeaf7" opacity="0.54"/><circle cx="644.8" cy="134.1" r="1.2" fill="#efeaf7" opacity="0.41"/><circle cx="949.4" cy="295.6" r="0.7" fill="#efeaf7" opacity="0.53"/><circle cx="365.1" cy="77.6" r="1.2" fill="#efeaf7" opacity="0.68"/><circle cx="1058.9" cy="276.3" r="1.6" fill="#efeaf7" opacity="0.40"/><circle cx="92.2" cy="521.1" r="1.6" fill="#efeaf7" opacity="0.25"/><circle cx="556.9" cy="374.6" r="1.2" fill="#efeaf7" opacity="0.77"/><circle cx="445.1" cy="251.7" r="1.2" fill="#efeaf7" opacity="0.62"/><circle cx="184.0" cy="24.2" r="0.9" fill="#efeaf7" opacity="0.43"/><circle cx="916.3" cy="283.3" r="1.2" fill="#efeaf7" opacity="0.83"/><circle cx="682.9" cy="116.4" r="1.2" fill="#efeaf7" opacity="0.81"/><circle cx="217.4" cy="371.4" r="0.7" fill="#efeaf7" opacity="0.87"/><circle cx="79.1" cy="403.0" r="1.6" fill="#efeaf7" opacity="0.80"/><circle cx="142.6" cy="494.0" r="1.6" fill="#efeaf7" opacity="0.76"/><circle cx="168.4" cy="125.2" r="0.9" fill="#efeaf7" opacity="0.73"/><circle cx="1070.9" cy="312.5" r="0.9" fill="#efeaf7" opacity="0.30"/><circle cx="180.0" cy="218.4" r="1.6" fill="#efeaf7" opacity="0.29"/><circle cx="658.2" cy="482.4" r="1.2" fill="#efeaf7" opacity="0.55"/><circle cx="231.0" cy="475.3" r="1.2" fill="#efeaf7" opacity="0.31"/><circle cx="1124.7" cy="175.0" r="0.9" fill="#efeaf7" opacity="0.53"/><circle cx="629.3" cy="560.2" r="1.2" fill="#efeaf7" opacity="0.41"/><circle cx="336.7" cy="684.1" r="0.9" fill="#efeaf7" opacity="0.26"/><circle cx="759.7" cy="599.7" r="1.6" fill="#efeaf7" opacity="0.68"/><circle cx="53.3" cy="235.5" r="1.2" fill="#efeaf7" opacity="0.56"/><circle cx="234.9" cy="415.2" r="1.2" fill="#efeaf7" opacity="0.47"/><circle cx="1124.4" cy="201.7" r="1.2" fill="#efeaf7" opacity="0.83"/><circle cx="481.0" cy="38.0" r="0.9" fill="#efeaf7" opacity="0.59"/><circle cx="259.4" cy="465.4" r="0.9" fill="#efeaf7" opacity="0.47"/><circle cx="443.9" cy="313.2" r="0.9" fill="#efeaf7" opacity="0.69"/><circle cx="824.7" cy="255.0" r="0.9" fill="#efeaf7" opacity="0.33"/><circle cx="655.0" cy="222.8" r="1.2" fill="#efeaf7" opacity="0.73"/><circle cx="288.9" cy="304.6" r="1.6" fill="#efeaf7" opacity="0.88"/><circle cx="901.6" cy="172.3" r="1.2" fill="#efeaf7" opacity="0.73"/><circle cx="526.5" cy="466.7" r="1.2" fill="#efeaf7" opacity="0.61"/><circle cx="245.4" cy="23.6" r="1.6" fill="#efeaf7" opacity="0.88"/><circle cx="742.1" cy="588.0" r="0.7" fill="#efeaf7" opacity="0.52"/><circle cx="542.5" cy="191.9" r="0.9" fill="#efeaf7" opacity="0.57"/><circle cx="966.3" cy="445.1" r="0.7" fill="#efeaf7" opacity="0.70"/><circle cx="319.2" cy="446.8" r="0.7" fill="#efeaf7" opacity="0.88"/><circle cx="957.7" cy="237.3" r="0.7" fill="#efeaf7" opacity="0.35"/><circle cx="856.4" cy="292.0" r="1.2" fill="#efeaf7" opacity="0.25"/><circle cx="428.4" cy="451.0" r="0.7" fill="#efeaf7" opacity="0.89"/><circle cx="880.2" cy="455.9" r="0.9" fill="#efeaf7" opacity="0.72"/><circle cx="704.8" cy="465.4" r="0.9" fill="#efeaf7" opacity="0.54"/><circle cx="45.4" cy="132.5" r="0.9" fill="#efeaf7" opacity="0.32"/><circle cx="633.0" cy="8.6" r="0.9" fill="#efeaf7" opacity="0.62"/><circle cx="577.2" cy="90.2" r="0.7" fill="#efeaf7" opacity="0.89"/><circle cx="538.0" cy="399.5" r="0.7" fill="#efeaf7" opacity="0.90"/><circle cx="483.5" cy="93.7" r="0.7" fill="#efeaf7" opacity="0.33"/><circle cx="821.5" cy="43.3" r="0.7" fill="#efeaf7" opacity="0.44"/><circle cx="282.2" cy="506.3" r="1.6" fill="#efeaf7" opacity="0.68"/><circle cx="454.8" cy="557.7" r="1.2" fill="#efeaf7" opacity="0.70"/><circle cx="288.2" cy="272.5" r="0.9" fill="#efeaf7" opacity="0.56"/><circle cx="240.5" cy="105.8" r="0.9" fill="#efeaf7" opacity="0.57"/><circle cx="584.3" cy="135.6" r="1.2" fill="#efeaf7" opacity="0.74"/><circle cx="907.3" cy="133.6" r="0.7" fill="#efeaf7" opacity="0.40"/><circle cx="630.8" cy="23.4" r="1.6" fill="#efeaf7" opacity="0.33"/><circle cx="711.2" cy="463.6" r="1.2" fill="#efeaf7" opacity="0.75"/><circle cx="1081.2" cy="320.7" r="1.2" fill="#efeaf7" opacity="0.80"/><circle cx="66.6" cy="470.2" r="0.7" fill="#efeaf7" opacity="0.36"/><circle cx="25.3" cy="337.7" r="0.7" fill="#efeaf7" opacity="0.80"/><circle cx="461.2" cy="247.8" r="0.9" fill="#efeaf7" opacity="0.25"/><circle cx="150.6" cy="690.3" r="0.7" fill="#efeaf7" opacity="0.85"/><circle cx="223.6" cy="481.4" r="1.6" fill="#efeaf7" opacity="0.43"/><circle cx="1165.0" cy="509.8" r="1.2" fill="#efeaf7" opacity="0.80"/><circle cx="165.7" cy="115.0" r="1.6" fill="#efeaf7" opacity="0.44"/><circle cx="277.4" cy="614.7" r="0.7" fill="#efeaf7" opacity="0.29"/><text x="60" y="70" font-family="DejaVu Serif, Georgia, serif" font-size="34" fill="#efeaf7" text-anchor="start" font-weight="normal">A transit lands on a chart, not a sign</text><text x="60" y="105" font-family="DejaVu Sans, Arial, sans-serif" font-size="20" fill="#8f8ab8" text-anchor="start" font-weight="normal">Same Uranus transit, two different charts</text><circle cx="300" cy="380" r="170" fill="none" stroke="#9d97c9" stroke-opacity="0.6" stroke-width="2" /><circle cx="300" cy="380" r="105.4" fill="none" stroke="#9d97c9" stroke-opacity="0.3" stroke-width="1.2" /><line x1="405.4" y1="380.0" x2="470.0" y2="380.0" stroke="#9d97c9" stroke-opacity="0.35" stroke-width="1.2" /><line x1="391.3" y1="327.3" x2="447.2" y2="295.0" stroke="#9d97c9" stroke-opacity="0.35" stroke-width="1.2" /><line x1="352.7" y1="288.7" x2="385.0" y2="232.8" stroke="#9d97c9" stroke-opacity="0.35" stroke-width="1.2" /><line x1="300.0" y1="274.6" x2="300.0" y2="210.0" stroke="#9d97c9" stroke-opacity="0.35" stroke-width="1.2" /><line x1="247.3" y1="288.7" x2="215.0" y2="232.8" stroke="#9d97c9" stroke-opacity="0.35" stroke-width="1.2" /><line x1="208.7" y1="327.3" x2="152.8" y2="295.0" stroke="#9d97c9" stroke-opacity="0.35" stroke-width="1.2" /><line x1="194.6" y1="380.0" x2="130.0" y2="380.0" stroke="#9d97c9" stroke-opacity="0.35" stroke-width="1.2" /><line x1="208.7" y1="432.7" x2="152.8" y2="465.0" stroke="#9d97c9" stroke-opacity="0.35" stroke-width="1.2" /><line x1="247.3" y1="471.3" x2="215.0" y2="527.2" stroke="#9d97c9" stroke-opacity="0.35" stroke-width="1.2" /><line x1="300.0" y1="485.4" x2="300.0" y2="550.0" stroke="#9d97c9" stroke-opacity="0.35" stroke-width="1.2" /><line x1="352.7" y1="471.3" x2="385.0" y2="527.2" stroke="#9d97c9" stroke-opacity="0.35" stroke-width="1.2" /><line x1="391.3" y1="432.7" x2="447.2" y2="465.0" stroke="#9d97c9" stroke-opacity="0.35" stroke-width="1.2" /><polygon points="352.7,288.7 385.0,232.8 371.8,225.9 358.1,220.3 344.0,215.8 329.5,212.6 314.8,210.6 300.0,210.0 300.0,274.6" fill="#e3b06b" opacity=".28"/><text x="300" y="585" font-family="DejaVu Serif, Georgia, serif" font-size="26" fill="#efeaf7" text-anchor="middle" font-weight="normal">Chart A</text><circle cx="355.6" cy="172.3" r="26.0" fill="#6fb7c9" opacity=".18" filter="url(#glow)"/><circle cx="355.6" cy="172.3" r="10" fill="#6fb7c9"/><text x="373.646094697042" y="164.3259473478503" font-family="DejaVu Sans, Arial, sans-serif" font-size="18" fill="#6fb7c9" text-anchor="start" font-weight="normal">Uranus</text><circle cx="336.2" cy="244.8" r="20.8" fill="#e3b06b" opacity=".18" filter="url(#glow)"/><circle cx="336.2" cy="244.8" r="8" fill="#e3b06b"/><line x1="355.6" y1="172.3" x2="336.2" y2="244.8" stroke="#e3b06b" stroke-opacity="0.9" stroke-width="3" /><circle cx="168.4" cy="427.9" r="15.600000000000001" fill="#9d97c9" opacity=".18" filter="url(#glow)"/><circle cx="168.4" cy="427.9" r="6" fill="#9d97c9"/><circle cx="370.0" cy="501.2" r="15.600000000000001" fill="#9d97c9" opacity=".18" filter="url(#glow)"/><circle cx="370.0" cy="501.2" r="6" fill="#9d97c9"/><text x="300" y="625" font-family="DejaVu Sans, Arial, sans-serif" font-size="20" fill="#e3b06b" text-anchor="middle" font-weight="normal">A personal planet sits in Gemini: contact</text><circle cx="900" cy="380" r="170" fill="none" stroke="#9d97c9" stroke-opacity="0.6" stroke-width="2" /><circle cx="900" cy="380" r="105.4" fill="none" stroke="#9d97c9" stroke-opacity="0.3" stroke-width="1.2" /><line x1="1005.4" y1="380.0" x2="1070.0" y2="380.0" stroke="#9d97c9" stroke-opacity="0.35" stroke-width="1.2" /><line x1="991.3" y1="327.3" x2="1047.2" y2="295.0" stroke="#9d97c9" stroke-opacity="0.35" stroke-width="1.2" /><line x1="952.7" y1="288.7" x2="985.0" y2="232.8" stroke="#9d97c9" stroke-opacity="0.35" stroke-width="1.2" /><line x1="900.0" y1="274.6" x2="900.0" y2="210.0" stroke="#9d97c9" stroke-opacity="0.35" stroke-width="1.2" /><line x1="847.3" y1="288.7" x2="815.0" y2="232.8" stroke="#9d97c9" stroke-opacity="0.35" stroke-width="1.2" /><line x1="808.7" y1="327.3" x2="752.8" y2="295.0" stroke="#9d97c9" stroke-opacity="0.35" stroke-width="1.2" /><line x1="794.6" y1="380.0" x2="730.0" y2="380.0" stroke="#9d97c9" stroke-opacity="0.35" stroke-width="1.2" /><line x1="808.7" y1="432.7" x2="752.8" y2="465.0" stroke="#9d97c9" stroke-opacity="0.35" stroke-width="1.2" /><line x1="847.3" y1="471.3" x2="815.0" y2="527.2" stroke="#9d97c9" stroke-opacity="0.35" stroke-width="1.2" /><line x1="900.0" y1="485.4" x2="900.0" y2="550.0" stroke="#9d97c9" stroke-opacity="0.35" stroke-width="1.2" /><line x1="952.7" y1="471.3" x2="985.0" y2="527.2" stroke="#9d97c9" stroke-opacity="0.35" stroke-width="1.2" /><line x1="991.3" y1="432.7" x2="1047.2" y2="465.0" stroke="#9d97c9" stroke-opacity="0.35" stroke-width="1.2" /><polygon points="952.7,288.7 985.0,232.8 971.8,225.9 958.1,220.3 944.0,215.8 929.5,212.6 914.8,210.6 900.0,210.0 900.0,274.6" fill="#e3b06b" opacity=".28"/><text x="900" y="585" font-family="DejaVu Serif, Georgia, serif" font-size="26" fill="#efeaf7" text-anchor="middle" font-weight="normal">Chart B</text><circle cx="955.6" cy="172.3" r="26.0" fill="#6fb7c9" opacity=".18" filter="url(#glow)"/><circle cx="955.6" cy="172.3" r="10" fill="#6fb7c9"/><text x="973.6460946970419" y="164.3259473478503" font-family="DejaVu Sans, Arial, sans-serif" font-size="18" fill="#6fb7c9" text-anchor="start" font-weight="normal">Uranus</text><circle cx="778.8" cy="310.0" r="15.600000000000001" fill="#9d97c9" opacity=".18" filter="url(#glow)"/><circle cx="778.8" cy="310.0" r="6" fill="#9d97c9"/><circle cx="768.4" cy="427.9" r="15.600000000000001" fill="#9d97c9" opacity=".18" filter="url(#glow)"/><circle cx="768.4" cy="427.9" r="6" fill="#9d97c9"/><circle cx="970.0" cy="501.2" r="15.600000000000001" fill="#9d97c9" opacity=".18" filter="url(#glow)"/><circle cx="970.0" cy="501.2" r="6" fill="#9d97c9"/><text x="900" y="625" font-family="DejaVu Sans, Arial, sans-serif" font-size="20" fill="#8f8ab8" text-anchor="middle" font-weight="normal">Nothing in Gemini: little contact</text><text x="600" y="685" font-family="DejaVu Sans, Arial, sans-serif" font-size="19" fill="#8f8ab8" text-anchor="middle" font-weight="normal">Highlighted slice = Gemini. Two people with the same sun sign can differ.</text></svg>