<svg xmlns="http://www.w3.org/2000/svg" viewBox="0 0 1600 840" width="1600" height="840"><defs><radialGradient id="bg" cx="50%" cy="45%" r="75%"><stop offset="0" stop-color="#151233"/><stop offset="1" stop-color="#0b0a1a"/></radialGradient><filter id="soft"><feGaussianBlur stdDeviation="14"/></filter><filter id="glow"><feGaussianBlur stdDeviation="5"/></filter></defs><rect width="1600" height="840" fill="url(#bg)"/><circle cx="1278.6" cy="273.8" r="0.9" fill="#efeaf7" opacity="0.38"/><circle cx="1503.5" cy="245.6" r="0.9" fill="#efeaf7" opacity="0.34"/><circle cx="1009.0" cy="420.5" r="1.2" fill="#efeaf7" opacity="0.27"/><circle cx="1531.5" cy="145.1" r="0.9" fill="#efeaf7" opacity="0.58"/><circle cx="1337.1" cy="153.6" r="1.2" fill="#efeaf7" opacity="0.33"/><circle cx="881.6" cy="218.7" r="1.6" fill="#efeaf7" opacity="0.38"/><circle cx="306.7" cy="68.0" r="0.9" fill="#efeaf7" opacity="0.70"/><circle cx="1441.8" cy="500.1" r="0.7" fill="#efeaf7" opacity="0.31"/><circle cx="1282.2" cy="594.2" r="0.9" fill="#efeaf7" opacity="0.73"/><circle cx="1359.6" cy="79.7" r="1.6" fill="#efeaf7" opacity="0.79"/><circle cx="1467.0" cy="658.7" r="0.7" fill="#efeaf7" opacity="0.43"/><circle cx="1003.3" cy="772.6" r="0.7" fill="#efeaf7" opacity="0.48"/><circle cx="847.6" cy="695.7" r="1.6" fill="#efeaf7" opacity="0.74"/><circle cx="1513.4" cy="446.0" r="0.9" fill="#efeaf7" opacity="0.62"/><circle cx="644.2" cy="116.2" r="1.6" fill="#efeaf7" opacity="0.26"/><circle cx="1575.7" cy="43.9" r="0.7" fill="#efeaf7" opacity="0.73"/><circle cx="1216.3" cy="363.6" r="1.2" fill="#efeaf7" opacity="0.89"/><circle cx="1448.2" cy="578.1" r="0.7" fill="#efeaf7" opacity="0.67"/><circle cx="1316.2" cy="549.8" r="0.9" fill="#efeaf7" opacity="0.44"/><circle cx="146.9" cy="708.5" r="1.2" fill="#efeaf7" opacity="0.85"/><circle cx="1201.2" cy="483.5" r="0.7" fill="#efeaf7" opacity="0.77"/><circle cx="234.3" cy="696.1" r="0.7" fill="#efeaf7" opacity="0.71"/><circle cx="383.8" cy="559.9" r="1.6" fill="#efeaf7" opacity="0.32"/><circle cx="624.4" cy="399.8" r="0.9" fill="#efeaf7" opacity="0.41"/><circle cx="335.9" cy="703.6" r="0.9" fill="#efeaf7" opacity="0.36"/><circle cx="40.2" cy="804.9" r="0.9" fill="#efeaf7" opacity="0.69"/><circle cx="1231.4" cy="812.2" r="1.6" fill="#efeaf7" opacity="0.57"/><circle cx="428.5" cy="704.9" r="0.7" fill="#efeaf7" opacity="0.56"/><circle cx="664.0" cy="454.4" r="1.2" fill="#efeaf7" opacity="0.54"/><circle cx="302.6" cy="497.1" r="0.7" fill="#efeaf7" opacity="0.27"/><circle cx="1176.2" cy="7.4" r="0.7" fill="#efeaf7" opacity="0.58"/><circle cx="1086.0" cy="654.4" r="0.9" fill="#efeaf7" opacity="0.32"/><circle cx="1062.6" cy="238.4" r="1.6" fill="#efeaf7" opacity="0.60"/><circle cx="1308.6" cy="337.9" r="1.6" fill="#efeaf7" opacity="0.80"/><circle cx="453.6" cy="755.4" r="0.7" fill="#efeaf7" opacity="0.81"/><circle cx="517.6" cy="767.7" r="1.2" fill="#efeaf7" opacity="0.88"/><circle cx="1207.8" cy="839.8" r="1.6" fill="#efeaf7" opacity="0.89"/><circle cx="1228.3" cy="550.6" r="1.6" fill="#efeaf7" opacity="0.58"/><circle cx="640.7" cy="729.6" r="1.6" fill="#efeaf7" opacity="0.88"/><circle cx="1400.6" cy="708.5" r="1.2" fill="#efeaf7" opacity="0.85"/><circle cx="438.8" cy="86.6" r="0.9" fill="#efeaf7" opacity="0.48"/><circle cx="1250.5" cy="41.2" r="0.7" fill="#efeaf7" opacity="0.59"/><circle cx="1369.6" cy="807.4" r="0.7" fill="#efeaf7" opacity="0.67"/><circle cx="1317.1" cy="227.6" r="0.9" fill="#efeaf7" opacity="0.67"/><circle cx="548.9" cy="569.5" r="1.6" fill="#efeaf7" opacity="0.31"/><circle cx="1123.8" cy="66.2" r="1.6" fill="#efeaf7" opacity="0.67"/><circle cx="1179.0" cy="4.3" r="1.6" fill="#efeaf7" opacity="0.74"/><circle cx="238.2" cy="339.9" r="0.7" fill="#efeaf7" opacity="0.53"/><circle cx="175.3" cy="315.7" r="0.9" fill="#efeaf7" opacity="0.27"/><circle cx="1255.9" cy="678.2" r="1.2" fill="#efeaf7" opacity="0.66"/><circle cx="1320.0" cy="456.0" r="0.7" fill="#efeaf7" opacity="0.30"/><circle cx="881.0" cy="831.9" r="1.6" fill="#efeaf7" opacity="0.58"/><circle cx="114.5" cy="619.6" r="0.9" fill="#efeaf7" opacity="0.60"/><circle cx="1231.1" cy="270.9" r="1.6" fill="#efeaf7" opacity="0.40"/><circle cx="777.6" cy="366.4" r="1.6" fill="#efeaf7" opacity="0.73"/><circle cx="1394.1" cy="658.3" r="1.6" fill="#efeaf7" opacity="0.70"/><circle cx="338.7" cy="515.7" r="1.2" fill="#efeaf7" opacity="0.67"/><circle cx="529.1" cy="810.5" r="1.6" fill="#efeaf7" opacity="0.37"/><circle cx="801.1" cy="659.3" r="0.9" fill="#efeaf7" opacity="0.42"/><circle cx="1274.3" cy="788.4" r="1.2" fill="#efeaf7" opacity="0.69"/><circle cx="1330.1" cy="442.5" r="1.6" fill="#efeaf7" opacity="0.44"/><circle cx="788.2" cy="584.6" r="0.7" fill="#efeaf7" opacity="0.56"/><circle cx="1090.8" cy="234.4" r="0.9" fill="#efeaf7" opacity="0.88"/><circle cx="1455.5" cy="489.1" r="1.6" fill="#efeaf7" opacity="0.59"/><circle cx="986.8" cy="580.7" r="0.7" fill="#efeaf7" opacity="0.70"/><circle cx="1287.6" cy="455.1" r="1.6" fill="#efeaf7" opacity="0.57"/><circle cx="612.3" cy="142.4" r="1.6" fill="#efeaf7" opacity="0.81"/><circle cx="687.4" cy="631.5" r="0.7" fill="#efeaf7" opacity="0.88"/><circle cx="488.2" cy="238.7" r="1.6" fill="#efeaf7" opacity="0.69"/><circle cx="32.7" cy="64.3" r="1.2" fill="#efeaf7" opacity="0.84"/><circle cx="597.1" cy="223.3" r="0.7" fill="#efeaf7" opacity="0.48"/><circle cx="233.8" cy="374.5" r="0.9" fill="#efeaf7" opacity="0.36"/><circle cx="788.5" cy="247.0" r="1.2" fill="#efeaf7" opacity="0.87"/><circle cx="1412.5" cy="557.0" r="0.9" fill="#efeaf7" opacity="0.36"/><circle cx="682.3" cy="20.5" r="0.7" fill="#efeaf7" opacity="0.58"/><circle cx="690.7" cy="168.3" r="0.7" fill="#efeaf7" opacity="0.86"/><circle cx="1490.8" cy="90.0" r="1.6" fill="#efeaf7" opacity="0.84"/><circle cx="145.3" cy="48.8" r="1.2" fill="#efeaf7" opacity="0.57"/><circle cx="444.6" cy="451.7" r="0.9" fill="#efeaf7" opacity="0.58"/><circle cx="829.3" cy="490.8" r="0.7" fill="#efeaf7" opacity="0.68"/><circle cx="1269.9" cy="800.0" r="0.9" fill="#efeaf7" opacity="0.37"/><circle cx="896.2" cy="178.9" r="1.2" fill="#efeaf7" opacity="0.87"/><circle cx="84.1" cy="458.1" r="0.7" fill="#efeaf7" opacity="0.59"/><circle cx="585.8" cy="378.1" r="1.6" fill="#efeaf7" opacity="0.86"/><circle cx="182.9" cy="402.8" r="1.6" fill="#efeaf7" opacity="0.72"/><circle cx="945.1" cy="80.8" r="0.9" fill="#efeaf7" opacity="0.33"/><circle cx="795.0" cy="238.5" r="1.2" fill="#efeaf7" opacity="0.73"/><circle cx="527.7" cy="400.4" r="1.2" fill="#efeaf7" opacity="0.40"/><circle cx="1279.0" cy="37.0" r="0.9" fill="#efeaf7" opacity="0.75"/><circle cx="960.8" cy="713.2" r="1.6" fill="#efeaf7" opacity="0.81"/><circle cx="1518.4" cy="613.2" r="1.6" fill="#efeaf7" opacity="0.40"/><circle cx="778.9" cy="655.9" r="1.2" fill="#efeaf7" opacity="0.47"/><circle cx="1479.8" cy="830.4" r="1.2" fill="#efeaf7" opacity="0.57"/><circle cx="923.2" cy="151.8" r="1.6" fill="#efeaf7" opacity="0.56"/><circle cx="654.6" cy="157.4" r="0.7" fill="#efeaf7" opacity="0.28"/><circle cx="25.6" cy="307.0" r="1.6" fill="#efeaf7" opacity="0.42"/><circle cx="748.7" cy="76.5" r="1.2" fill="#efeaf7" opacity="0.52"/><circle cx="1443.9" cy="457.9" r="1.6" fill="#efeaf7" opacity="0.27"/><circle cx="1481.0" cy="387.7" r="0.9" fill="#efeaf7" opacity="0.32"/><circle cx="260.9" cy="469.9" r="1.2" fill="#efeaf7" opacity="0.74"/><circle cx="1477.4" cy="96.3" r="1.2" fill="#efeaf7" opacity="0.88"/><circle cx="834.7" cy="12.9" r="1.2" fill="#efeaf7" opacity="0.43"/><circle cx="356.6" cy="212.9" r="1.2" fill="#efeaf7" opacity="0.36"/><circle cx="10.6" cy="552.8" r="1.6" fill="#efeaf7" opacity="0.81"/><circle cx="298.2" cy="677.5" r="0.7" fill="#efeaf7" opacity="0.77"/><circle cx="48.3" cy="590.7" r="1.6" fill="#efeaf7" opacity="0.67"/><circle cx="338.0" cy="332.5" r="0.7" fill="#efeaf7" opacity="0.85"/><circle cx="1299.2" cy="700.7" r="1.2" fill="#efeaf7" opacity="0.39"/><circle cx="949.9" cy="759.8" r="1.2" fill="#efeaf7" opacity="0.69"/><circle cx="167.3" cy="560.8" r="0.7" fill="#efeaf7" opacity="0.33"/><circle cx="935.3" cy="115.5" r="1.6" fill="#efeaf7" opacity="0.32"/><circle cx="440.1" cy="108.3" r="0.9" fill="#efeaf7" opacity="0.75"/><circle cx="1297.4" cy="596.2" r="0.9" fill="#efeaf7" opacity="0.75"/><circle cx="690.8" cy="319.5" r="1.6" fill="#efeaf7" opacity="0.89"/><circle cx="319.6" cy="31.2" r="0.9" fill="#efeaf7" opacity="0.51"/><circle cx="682.8" cy="80.3" r="0.9" fill="#efeaf7" opacity="0.59"/><circle cx="938.8" cy="784.8" r="0.9" fill="#efeaf7" opacity="0.36"/><circle cx="483.0" cy="586.0" r="0.7" fill="#efeaf7" opacity="0.60"/><circle cx="114.7" cy="349.1" r="1.2" fill="#efeaf7" opacity="0.51"/><circle cx="233.1" cy="440.8" r="1.6" fill="#efeaf7" opacity="0.79"/><circle cx="655.0" cy="383.9" r="1.6" fill="#efeaf7" opacity="0.42"/><circle cx="1370.1" cy="741.9" r="0.7" fill="#efeaf7" opacity="0.90"/><circle cx="192.2" cy="259.4" r="0.7" fill="#efeaf7" opacity="0.90"/><circle cx="1312.4" cy="79.2" r="1.6" fill="#efeaf7" opacity="0.39"/><circle cx="689.8" cy="62.6" r="0.7" fill="#efeaf7" opacity="0.43"/><circle cx="507.0" cy="569.0" r="1.2" fill="#efeaf7" opacity="0.27"/><circle cx="1104.7" cy="234.5" r="0.7" fill="#efeaf7" opacity="0.89"/><circle cx="1496.4" cy="525.1" r="0.7" fill="#efeaf7" opacity="0.57"/><circle cx="761.5" cy="580.4" r="1.2" fill="#efeaf7" opacity="0.81"/><circle cx="1495.8" cy="770.4" r="0.7" fill="#efeaf7" opacity="0.83"/><circle cx="912.2" cy="694.1" r="1.2" fill="#efeaf7" opacity="0.40"/><circle cx="1025.1" cy="466.8" r="0.9" fill="#efeaf7" opacity="0.63"/><circle cx="21.0" cy="736.6" r="1.6" fill="#efeaf7" opacity="0.27"/><circle cx="1541.9" cy="797.8" r="1.6" fill="#efeaf7" opacity="0.49"/><circle cx="1217.2" cy="69.3" r="0.7" fill="#efeaf7" opacity="0.60"/><circle cx="1394.4" cy="321.4" r="1.2" fill="#efeaf7" opacity="0.84"/><circle cx="399.1" cy="310.7" r="1.2" fill="#efeaf7" opacity="0.88"/><circle cx="641.4" cy="708.5" r="0.7" fill="#efeaf7" opacity="0.52"/><circle cx="1095.6" cy="728.8" r="1.6" fill="#efeaf7" opacity="0.53"/><circle cx="13.5" cy="733.4" r="0.7" fill="#efeaf7" opacity="0.86"/><circle cx="1000" cy="420" r="390" fill="none" stroke="#e3b06b" stroke-opacity="0.6" stroke-width="2.5" /><circle cx="1000" cy="420" r="250" fill="none" stroke="#9d97c9" stroke-opacity="0.35" stroke-width="1.5" /><circle cx="1000" cy="420" r="90" fill="none" stroke="#9d97c9" stroke-opacity="0.3" stroke-width="1.5" /><line x1="910.0" y1="420.0" x2="610.0" y2="420.0" stroke="#9d97c9" stroke-opacity="0.4" stroke-width="1.5" /><line x1="922.1" y1="465.0" x2="662.3" y2="615.0" stroke="#9d97c9" stroke-opacity="0.4" stroke-width="1.5" /><line x1="955.0" y1="497.9" x2="805.0" y2="757.7" stroke="#9d97c9" stroke-opacity="0.4" stroke-width="1.5" /><line x1="1000.0" y1="510.0" x2="1000.0" y2="810.0" stroke="#9d97c9" stroke-opacity="0.4" stroke-width="1.5" /><line x1="1045.0" y1="497.9" x2="1195.0" y2="757.7" stroke="#9d97c9" stroke-opacity="0.4" stroke-width="1.5" /><line x1="1077.9" y1="465.0" x2="1337.7" y2="615.0" stroke="#9d97c9" stroke-opacity="0.4" stroke-width="1.5" /><line x1="1090.0" y1="420.0" x2="1390.0" y2="420.0" stroke="#9d97c9" stroke-opacity="0.4" stroke-width="1.5" /><line x1="1077.9" y1="375.0" x2="1337.7" y2="225.0" stroke="#9d97c9" stroke-opacity="0.4" stroke-width="1.5" /><line x1="1045.0" y1="342.1" x2="1195.0" y2="82.3" stroke="#9d97c9" stroke-opacity="0.4" stroke-width="1.5" /><line x1="1000.0" y1="330.0" x2="1000.0" y2="30.0" stroke="#9d97c9" stroke-opacity="0.4" stroke-width="1.5" /><line x1="955.0" y1="342.1" x2="805.0" y2="82.3" stroke="#9d97c9" stroke-opacity="0.4" stroke-width="1.5" /><line x1="922.1" y1="375.0" x2="662.3" y2="225.0" stroke="#9d97c9" stroke-opacity="0.4" stroke-width="1.5" /><line x1="600.0" y1="420.0" x2="910.0" y2="420.0" stroke="#e3b06b" stroke-opacity="0.95" stroke-width="4" /><circle cx="690.9" cy="502.8" r="15.600000000000001" fill="#9d97c9" opacity=".18" filter="url(#glow)"/><circle cx="690.9" cy="502.8" r="6" fill="#9d97c9"/><circle cx="1109.4" cy="720.7" r="15.600000000000001" fill="#9d97c9" opacity=".18" filter="url(#glow)"/><circle cx="1109.4" cy="720.7" r="6" fill="#9d97c9"/><circle cx="1290.0" cy="284.8" r="15.600000000000001" fill="#9d97c9" opacity=".18" filter="url(#glow)"/><circle cx="1290.0" cy="284.8" r="6" fill="#9d97c9"/><circle cx="840.0" cy="142.9" r="15.600000000000001" fill="#9d97c9" opacity=".18" filter="url(#glow)"/><circle cx="840.0" cy="142.9" r="6" fill="#9d97c9"/><circle cx="610.0" cy="420.0" r="28.6" fill="#e3b06b" opacity=".18" filter="url(#glow)"/><circle cx="610.0" cy="420.0" r="11" fill="#e3b06b"/></svg>