<svg xmlns="http://www.w3.org/2000/svg" viewBox="0 0 1200 700" width="1200" height="700"><defs><radialGradient id="bg" cx="50%" cy="45%" r="75%"><stop offset="0" stop-color="#151233"/><stop offset="1" stop-color="#0b0a1a"/></radialGradient><filter id="soft"><feGaussianBlur stdDeviation="14"/></filter><filter id="glow"><feGaussianBlur stdDeviation="5"/></filter></defs><rect width="1200" height="700" fill="url(#bg)"/><circle cx="295.8" cy="406.9" r="1.6" fill="#efeaf7" opacity="0.56"/><circle cx="370.8" cy="96.5" r="0.7" fill="#efeaf7" opacity="0.41"/><circle cx="713.3" cy="496.1" r="1.2" fill="#efeaf7" opacity="0.80"/><circle cx="228.4" cy="634.9" r="0.9" fill="#efeaf7" opacity="0.85"/><circle cx="881.4" cy="97.7" r="1.2" fill="#efeaf7" opacity="0.32"/><circle cx="1147.2" cy="44.3" r="0.9" fill="#efeaf7" opacity="0.35"/><circle cx="324.7" cy="170.2" r="1.6" fill="#efeaf7" opacity="0.53"/><circle cx="986.9" cy="49.9" r="1.2" fill="#efeaf7" opacity="0.51"/><circle cx="349.8" cy="208.9" r="0.7" fill="#efeaf7" opacity="0.80"/><circle cx="878.9" cy="622.2" r="1.2" fill="#efeaf7" opacity="0.36"/><circle cx="263.2" cy="66.0" r="1.6" fill="#efeaf7" opacity="0.84"/><circle cx="957.4" cy="683.2" r="0.9" fill="#efeaf7" opacity="0.69"/><circle cx="959.1" cy="347.9" r="1.6" fill="#efeaf7" opacity="0.47"/><circle cx="457.2" cy="428.7" r="0.7" fill="#efeaf7" opacity="0.57"/><circle cx="467.2" cy="516.8" r="1.2" fill="#efeaf7" opacity="0.88"/><circle cx="16.2" cy="280.3" r="1.2" fill="#efeaf7" opacity="0.42"/><circle cx="462.5" cy="602.6" r="1.2" fill="#efeaf7" opacity="0.82"/><circle cx="1101.6" cy="644.6" r="0.9" fill="#efeaf7" opacity="0.85"/><circle cx="1077.0" cy="650.9" r="1.6" fill="#efeaf7" opacity="0.34"/><circle cx="845.3" cy="555.7" r="1.6" fill="#efeaf7" opacity="0.89"/><circle cx="806.1" cy="300.3" r="0.7" fill="#efeaf7" opacity="0.44"/><circle cx="181.6" cy="450.0" r="0.7" fill="#efeaf7" opacity="0.82"/><circle cx="295.5" cy="228.1" r="0.9" fill="#efeaf7" opacity="0.57"/><circle cx="33.5" cy="484.8" r="1.2" fill="#efeaf7" opacity="0.41"/><circle cx="1079.5" cy="233.6" r="0.9" fill="#efeaf7" opacity="0.88"/><circle cx="1040.9" cy="604.0" r="0.9" fill="#efeaf7" opacity="0.52"/><circle cx="246.4" cy="634.2" r="0.7" fill="#efeaf7" opacity="0.30"/><circle cx="730.8" cy="111.3" r="1.6" fill="#efeaf7" opacity="0.84"/><circle cx="510.5" cy="643.8" r="0.9" fill="#efeaf7" opacity="0.37"/><circle cx="1131.4" cy="249.4" r="1.2" fill="#efeaf7" opacity="0.69"/><circle cx="366.0" cy="18.6" r="1.6" fill="#efeaf7" opacity="0.86"/><circle cx="202.4" cy="104.7" r="0.9" fill="#efeaf7" opacity="0.41"/><circle cx="484.2" cy="45.8" r="1.2" fill="#efeaf7" opacity="0.33"/><circle cx="886.8" cy="41.4" r="1.6" fill="#efeaf7" opacity="0.68"/><circle cx="535.9" cy="228.8" r="1.2" fill="#efeaf7" opacity="0.48"/><circle cx="1067.0" cy="136.2" r="1.6" fill="#efeaf7" opacity="0.50"/><circle cx="69.9" cy="303.4" r="0.7" fill="#efeaf7" opacity="0.86"/><circle cx="47.2" cy="407.6" r="0.9" fill="#efeaf7" opacity="0.67"/><circle cx="946.6" cy="191.9" r="0.9" fill="#efeaf7" opacity="0.67"/><circle cx="311.4" cy="503.0" r="1.6" fill="#efeaf7" opacity="0.43"/><circle cx="915.3" cy="512.5" r="1.6" fill="#efeaf7" opacity="0.53"/><circle cx="168.3" cy="154.5" r="0.9" fill="#efeaf7" opacity="0.47"/><circle cx="48.6" cy="261.0" r="0.9" fill="#efeaf7" opacity="0.45"/><circle cx="392.1" cy="191.9" r="1.6" fill="#efeaf7" opacity="0.62"/><circle cx="85.0" cy="291.6" r="1.6" fill="#efeaf7" opacity="0.71"/><circle cx="615.8" cy="279.5" r="1.2" fill="#efeaf7" opacity="0.64"/><circle cx="266.8" cy="208.4" r="0.7" fill="#efeaf7" opacity="0.30"/><circle cx="644.6" cy="5.1" r="0.7" fill="#efeaf7" opacity="0.86"/><circle cx="870.9" cy="331.0" r="0.7" fill="#efeaf7" opacity="0.41"/><circle cx="534.5" cy="123.4" r="0.7" fill="#efeaf7" opacity="0.35"/><circle cx="383.8" cy="289.4" r="1.2" fill="#efeaf7" opacity="0.32"/><circle cx="671.9" cy="29.7" r="1.6" fill="#efeaf7" opacity="0.80"/><circle cx="202.5" cy="497.6" r="0.9" fill="#efeaf7" opacity="0.70"/><circle cx="376.7" cy="483.4" r="1.6" fill="#efeaf7" opacity="0.51"/><circle cx="720.5" cy="32.2" r="0.7" fill="#efeaf7" opacity="0.87"/><circle cx="880.3" cy="113.6" r="0.9" fill="#efeaf7" opacity="0.42"/><circle cx="918.8" cy="616.8" r="1.6" fill="#efeaf7" opacity="0.71"/><circle cx="650.8" cy="504.3" r="1.6" fill="#efeaf7" opacity="0.32"/><circle cx="331.2" cy="506.8" r="1.2" fill="#efeaf7" opacity="0.48"/><circle cx="485.4" cy="322.1" r="1.2" fill="#efeaf7" opacity="0.84"/><circle cx="186.8" cy="673.5" r="0.9" fill="#efeaf7" opacity="0.47"/><circle cx="154.5" cy="7.1" r="0.7" fill="#efeaf7" opacity="0.59"/><circle cx="1157.4" cy="151.1" r="1.2" fill="#efeaf7" opacity="0.35"/><circle cx="938.4" cy="572.3" r="1.2" fill="#efeaf7" opacity="0.44"/><circle cx="130.3" cy="572.0" r="1.2" fill="#efeaf7" opacity="0.73"/><circle cx="214.8" cy="235.8" r="0.7" fill="#efeaf7" opacity="0.65"/><circle cx="416.1" cy="26.2" r="1.2" fill="#efeaf7" opacity="0.51"/><circle cx="118.8" cy="109.5" r="1.6" fill="#efeaf7" opacity="0.34"/><circle cx="273.6" cy="267.2" r="1.2" fill="#efeaf7" opacity="0.40"/><circle cx="985.6" cy="333.1" r="1.2" fill="#efeaf7" opacity="0.53"/><text x="60" y="70" font-family="DejaVu Serif, Georgia, serif" font-size="34" fill="#efeaf7" text-anchor="start" font-weight="normal">Whole Sign houses</text><text x="60" y="105" font-family="DejaVu Sans, Arial, sans-serif" font-size="20" fill="#8f8ab8" text-anchor="start" font-weight="normal">Ascendant at 17 degrees Virgo: all of Virgo is house 1</text><circle cx="420" cy="395" r="270" fill="none" stroke="#e3b06b" stroke-opacity="0.7" stroke-width="2.5" /><circle cx="420" cy="395" r="148.5" fill="none" stroke="#9d97c9" stroke-opacity="0.3" stroke-width="1.2" /><line x1="271.5" y1="395.0" x2="150.0" y2="395.0" stroke="#9d97c9" stroke-opacity="0.45" stroke-width="1.4" /><text x="217" y="446" font-family="DejaVu Sans, Arial, sans-serif" font-size="15" fill="#efeaf7" text-anchor="middle" font-weight="normal">Virgo</text><text x="217" y="468" font-family="DejaVu Sans, Arial, sans-serif" font-size="14" fill="#e3b06b" text-anchor="middle" font-weight="normal">House 1</text><line x1="291.4" y1="469.2" x2="186.2" y2="530.0" stroke="#9d97c9" stroke-opacity="0.45" stroke-width="1.4" /><text x="271" y="540" font-family="DejaVu Sans, Arial, sans-serif" font-size="15" fill="#efeaf7" text-anchor="middle" font-weight="normal">Libra</text><text x="271" y="562" font-family="DejaVu Sans, Arial, sans-serif" font-size="14" fill="#e3b06b" text-anchor="middle" font-weight="normal">House 2</text><line x1="345.7" y1="523.6" x2="285.0" y2="628.8" stroke="#9d97c9" stroke-opacity="0.45" stroke-width="1.4" /><text x="365" y="594" font-family="DejaVu Sans, Arial, sans-serif" font-size="15" fill="#efeaf7" text-anchor="middle" font-weight="normal">Scorpio</text><text x="365" y="616" font-family="DejaVu Sans, Arial, sans-serif" font-size="14" fill="#e3b06b" text-anchor="middle" font-weight="normal">House 3</text><line x1="420.0" y1="543.5" x2="420.0" y2="665.0" stroke="#9d97c9" stroke-opacity="0.45" stroke-width="1.4" /><text x="475" y="594" font-family="DejaVu Sans, Arial, sans-serif" font-size="15" fill="#efeaf7" text-anchor="middle" font-weight="normal">Sagittarius</text><text x="475" y="616" font-family="DejaVu Sans, Arial, sans-serif" font-size="14" fill="#e3b06b" text-anchor="middle" font-weight="normal">House 4</text><line x1="494.2" y1="523.6" x2="555.0" y2="628.8" stroke="#9d97c9" stroke-opacity="0.45" stroke-width="1.4" /><text x="569" y="540" font-family="DejaVu Sans, Arial, sans-serif" font-size="15" fill="#efeaf7" text-anchor="middle" font-weight="normal">Capricorn</text><text x="569" y="562" font-family="DejaVu Sans, Arial, sans-serif" font-size="14" fill="#e3b06b" text-anchor="middle" font-weight="normal">House 5</text><line x1="548.6" y1="469.3" x2="653.8" y2="530.0" stroke="#9d97c9" stroke-opacity="0.45" stroke-width="1.4" /><text x="623" y="446" font-family="DejaVu Sans, Arial, sans-serif" font-size="15" fill="#efeaf7" text-anchor="middle" font-weight="normal">Aquarius</text><text x="623" y="468" font-family="DejaVu Sans, Arial, sans-serif" font-size="14" fill="#e3b06b" text-anchor="middle" font-weight="normal">House 6</text><line x1="568.5" y1="395.0" x2="690.0" y2="395.0" stroke="#9d97c9" stroke-opacity="0.45" stroke-width="1.4" /><text x="623" y="336" font-family="DejaVu Sans, Arial, sans-serif" font-size="15" fill="#efeaf7" text-anchor="middle" font-weight="normal">Pisces</text><text x="623" y="358" font-family="DejaVu Sans, Arial, sans-serif" font-size="14" fill="#e3b06b" text-anchor="middle" font-weight="normal">House 7</text><line x1="548.6" y1="320.8" x2="653.8" y2="260.0" stroke="#9d97c9" stroke-opacity="0.45" stroke-width="1.4" /><text x="569" y="242" font-family="DejaVu Sans, Arial, sans-serif" font-size="15" fill="#efeaf7" text-anchor="middle" font-weight="normal">Aries</text><text x="569" y="264" font-family="DejaVu Sans, Arial, sans-serif" font-size="14" fill="#e3b06b" text-anchor="middle" font-weight="normal">House 8</text><line x1="494.2" y1="266.4" x2="555.0" y2="161.2" stroke="#9d97c9" stroke-opacity="0.45" stroke-width="1.4" /><text x="475" y="188" font-family="DejaVu Sans, Arial, sans-serif" font-size="15" fill="#efeaf7" text-anchor="middle" font-weight="normal">Taurus</text><text x="475" y="210" font-family="DejaVu Sans, Arial, sans-serif" font-size="14" fill="#e3b06b" text-anchor="middle" font-weight="normal">House 9</text><line x1="420.0" y1="246.5" x2="420.0" y2="125.0" stroke="#9d97c9" stroke-opacity="0.45" stroke-width="1.4" /><text x="365" y="188" font-family="DejaVu Sans, Arial, sans-serif" font-size="15" fill="#efeaf7" text-anchor="middle" font-weight="normal">Gemini</text><text x="365" y="210" font-family="DejaVu Sans, Arial, sans-serif" font-size="14" fill="#e3b06b" text-anchor="middle" font-weight="normal">House 10</text><line x1="345.8" y1="266.4" x2="285.0" y2="161.2" stroke="#9d97c9" stroke-opacity="0.45" stroke-width="1.4" /><text x="271" y="242" font-family="DejaVu Sans, Arial, sans-serif" font-size="15" fill="#efeaf7" text-anchor="middle" font-weight="normal">Cancer</text><text x="271" y="264" font-family="DejaVu Sans, Arial, sans-serif" font-size="14" fill="#e3b06b" text-anchor="middle" font-weight="normal">House 11</text><line x1="291.4" y1="320.8" x2="186.2" y2="260.0" stroke="#9d97c9" stroke-opacity="0.45" stroke-width="1.4" /><text x="217" y="336" font-family="DejaVu Sans, Arial, sans-serif" font-size="15" fill="#efeaf7" text-anchor="middle" font-weight="normal">Leo</text><text x="217" y="358" font-family="DejaVu Sans, Arial, sans-serif" font-size="14" fill="#e3b06b" text-anchor="middle" font-weight="normal">House 12</text><line x1="128.0" y1="395.0" x2="271.5" y2="395.0" stroke="#e3b06b" stroke-opacity="0.95" stroke-width="4" /><text x="126" y="383" font-family="DejaVu Sans, Arial, sans-serif" font-size="16" fill="#e3b06b" text-anchor="end" font-weight="normal">Ascendant</text><rect x="760" y="190" width="380" height="400" rx="14" fill="#151233" fill-opacity="0.9" stroke="#9d97c9" stroke-opacity=".6" stroke-width="1.5"/><text x="785" y="245" font-family="DejaVu Sans, Arial, sans-serif" font-size="19" fill="#efeaf7" text-anchor="start" font-weight="normal">Each house is one whole sign.</text><text x="785" y="281" font-family="DejaVu Sans, Arial, sans-serif" font-size="19" fill="#efeaf7" text-anchor="start" font-weight="normal">The first house is the sign of</text><text x="785" y="317" font-family="DejaVu Sans, Arial, sans-serif" font-size="19" fill="#efeaf7" text-anchor="start" font-weight="normal">the Ascendant, then signs follow</text><text x="785" y="353" font-family="DejaVu Sans, Arial, sans-serif" font-size="19" fill="#efeaf7" text-anchor="start" font-weight="normal">in order around the chart.</text><text x="785" y="389" font-family="DejaVu Sans, Arial, sans-serif" font-size="19" fill="#8f8ab8" text-anchor="start" font-weight="normal"></text><text x="785" y="425" font-family="DejaVu Sans, Arial, sans-serif" font-size="19" fill="#efeaf7" text-anchor="start" font-weight="normal">Other systems split houses by</text><text x="785" y="461" font-family="DejaVu Sans, Arial, sans-serif" font-size="19" fill="#efeaf7" text-anchor="start" font-weight="normal">time, so a house can start</text><text x="785" y="497" font-family="DejaVu Sans, Arial, sans-serif" font-size="19" fill="#efeaf7" text-anchor="start" font-weight="normal">mid-sign and a planet can land</text><text x="785" y="533" font-family="DejaVu Sans, Arial, sans-serif" font-size="19" fill="#efeaf7" text-anchor="start" font-weight="normal">in a different house.</text></svg>